<svg width="315" height="243" viewBox="0 0 315 243" fill="none" xmlns="http://www.w3.org/2000/svg">
<g filter="url(#filter0_d_3_2)">
<g filter="url(#filter1_d_3_2)">
<path d="M128.058 2.875H147.997L156.41 3.81176L167.937 5.68528L176.038 7.55879L184.761 10.0568L194.42 13.4916L204.389 17.5509L215.294 22.2347L223.706 26.294L228.691 28.792L236.48 32.8513L241.776 35.9738L249.254 40.6576L252.992 43.1556L258.601 47.2149L263.897 50.962L268.259 54.3967L272.309 58.1438L277.917 63.7643L281.344 68.1359L284.148 72.5074L286.018 76.879L286.952 80.626V83.7485L286.018 87.4956L283.214 91.8671L280.721 94.3651L275.425 97.4876L267.013 101.235L264.832 101.859V102.484L267.947 103.42L269.193 103.733L273.555 104.045L278.229 105.294L281.656 107.167L283.525 108.729L285.394 111.539L286.641 114.349L288.822 115.598L296.611 121.843L301.595 126.527L303.776 129.025L306.892 133.397L308.761 136.519L310.942 141.828L312.188 147.448V155.567L310.631 162.124L307.827 168.369L304.711 173.365L301.595 177.424L298.791 180.547L296.611 183.045L291.626 188.041L288.199 190.851L283.837 194.286L279.786 197.409L273.555 201.78L265.766 206.776L258.289 211.148L251.123 215.207L242.088 220.203L234.922 223.95L224.641 228.634L217.475 231.444L206.882 234.879L194.42 237.689L186.631 238.938L176.349 239.875H164.822L156.098 239.25L144.882 237.689L137.093 236.128L128.058 233.63L119.957 230.82L111.857 227.697L105.626 224.887L98.4598 221.14L91.9171 217.081L86.3091 213.021L81.3241 208.962L78.5201 206.776L74.7814 203.341L69.7965 198.345L66.9925 196.472L61.3844 193.349L50.1683 185.855L45.1834 181.796L41.1332 178.673L35.5251 173.053L33.0327 170.867L28.9824 166.808L26.8015 164.31L23.0628 159.938L19.9472 155.879L16.8317 151.195L14.0276 146.511L9.35427 137.144L6.23869 129.337L4.05779 121.531L2.81156 114.037L2.5 110.602V98.7367L4.05779 89.6813L6.23869 81.875L8.73116 75.6299L11.2236 70.6339L15.2739 63.7643L18.701 59.0805L21.505 55.3335L25.2437 51.2742L30.8518 45.6537L33.3442 43.4679L36.1482 40.9699L39.5754 38.1596L44.8719 34.1003L50.7915 30.041L56.7111 26.294L63.5653 22.5469L68.8618 20.0489L73.5352 17.5509L85.6859 12.5548L95.3442 9.12006L104.379 6.62204L114.661 4.43626L124.008 3.18725L128.058 2.875Z" fill="#848383"/>
</g>
<path d="M128.058 2.875H147.997L156.41 3.81176L167.937 5.68528L176.038 7.55879L184.761 10.0568L194.42 13.4916L204.389 17.5509L215.294 22.2347L223.706 26.294L228.691 28.792L236.48 32.8513L241.776 35.9738L249.254 40.6576L252.992 43.1556L258.601 47.2149L263.897 50.962L268.259 54.3967L272.309 58.1438L277.917 63.7643L281.344 68.1359L284.148 72.5074L286.018 76.879L286.952 80.626V83.7485L286.018 87.4956L283.214 91.8671L280.721 94.3651L275.425 97.4876L267.013 101.235L264.832 101.859V102.484L267.013 103.108L266.078 103.42L264.209 102.796L263.897 102.171L261.716 101.235L250.5 96.5509L241.465 93.1161L229.003 88.7446L216.229 84.6853L198.781 80.0015L188.812 77.5035L176.038 74.6932L162.641 72.1952L147.997 69.6971L135.847 67.8236L122.45 66.2624L109.987 65.3256L104.068 65.0133H90.0477L84.1281 65.3256L75.7161 66.5746L67.6156 68.7604L61.696 70.9462L56.7111 73.4442L53.5955 75.3177L49.5452 78.7525L47.9874 80.0015L45.1834 83.4363L43.0025 86.5588L39.8869 93.1161L38.0176 98.1122L36.4598 102.796L36.1482 104.669L33.6558 105.606L33.3442 106.231V135.895L33.6558 136.832L34.2789 137.144L38.0176 137.456L38.9523 140.891L41.4447 148.385L43.9372 154.942L47.0528 162.436L50.1683 168.681L52.3492 172.428L56.0879 178.673L59.5151 183.982L63.2538 188.978L66.0578 192.1L69.4849 195.847L70.295 197.846L71.2315 199.784L75.9739 201.156L77.7724 201.843L81.7603 203.341L85.9975 205.215L91.9171 207.401L100.329 209.899L110.922 212.084L119.023 213.021L122.761 213.334H131.485L138.651 212.397L142.078 212.084L140.832 213.021L136.781 214.27L133.977 215.207L133.043 216.144L133.977 217.081L136.158 218.33V220.515L137.093 221.764L136.781 222.701H135.535L135.847 223.638L137.093 223.95L137.405 224.887L137.093 226.136L137.716 227.073L137.405 228.634L137.093 229.258L134.912 229.571L133.977 231.444L135.535 232.381L140.832 233.942L142.389 234.567L148.621 235.503L149.244 236.44L148.621 237.065H147.374V236.44L146.44 236.752L141.766 236.128L141.455 235.816H138.962L135.847 234.567L133.043 234.254L130.55 233.63H128.058L119.957 230.82L111.857 227.697L105.626 224.887L98.4598 221.14L91.9171 217.081L86.3091 213.021L81.3241 208.962L78.5201 206.776L74.7814 203.341L69.7965 198.345L66.9925 196.472L61.3844 193.349L50.1683 185.855L45.1834 181.796L41.1332 178.673L35.5251 173.053L33.0327 170.867L28.9824 166.808L26.8015 164.31L23.0628 159.938L19.9472 155.879L16.8317 151.195L14.0276 146.511L9.35427 137.144L6.23869 129.337L4.05779 121.531L2.81156 114.037L2.5 110.602V98.7367L4.05779 89.6813L6.23869 81.875L8.73116 75.6299L11.2236 70.6339L15.2739 63.7643L18.701 59.0805L21.505 55.3335L25.2437 51.2742L30.8518 45.6537L33.3442 43.4679L36.1482 40.9699L39.5754 38.1596L44.8719 34.1003L50.7915 30.041L56.7111 26.294L63.5653 22.5469L68.8618 20.0489L73.5352 17.5509L85.6859 12.5548L95.3442 9.12006L104.379 6.62204L114.661 4.43626L124.008 3.18725L128.058 2.875Z" fill="#89069D"/>
<path d="M264.022 102.421L264.234 102.171L265.019 101.922L265.517 102.421L266.228 102.796L267.013 102.921L268.259 103.42L269.505 103.733L273.867 104.045L278.54 105.294L281.967 107.167L283.837 108.729L285.706 111.539L286.952 114.349L289.133 115.598L296.922 121.843L301.907 126.527L304.088 129.025L307.204 133.397L309.073 136.519L311.254 141.828L312.5 147.448V155.567L310.942 162.124L308.138 168.369L305.023 173.365L301.907 177.424L299.103 180.547L296.922 183.045L291.937 188.041L288.51 190.851L284.148 194.286L280.098 197.409L273.867 201.78L266.078 206.776L258.601 211.148L251.435 215.207L242.399 220.203L235.234 223.95L224.952 228.634L217.786 231.444L207.193 234.879L194.731 237.689L186.942 238.938L176.661 239.875H165.133L156.41 239.25L145.193 237.689L137.405 236.128L129.616 233.942V233.318L132.108 233.63L134.912 234.254L137.405 234.567L139.585 235.503H141.766L142.078 235.816L147.686 236.44V237.065L149.244 236.44L148.621 235.816L141.455 234.567L140.52 233.942L136.781 233.005L134.601 232.069L133.354 231.132H134.289L134.912 229.571L135.224 229.258H137.405L137.716 227.073L137.093 225.824L137.405 224.575L137.093 223.95H135.847V222.701L137.093 222.389L136.47 220.828L136.158 220.515V218.33L133.354 216.768L133.043 216.144L134.289 214.895L137.093 213.958L141.143 212.709L142.389 212.397V211.772L149.555 209.899L157.033 207.088L165.756 203.029L168.872 201.156L172.299 198.97L176.038 196.472L180.088 193.349L181.334 192.413H181.957V191.788L184.45 189.915L188.5 186.167L192.239 182.108L195.666 177.737L196.912 175.863H197.535L198.158 174.302L200.339 171.179L203.455 166.183L204.701 163.685L207.505 154.942L209.997 145.575L212.178 139.642L214.048 136.207L215.294 134.958L215.606 105.606L215.917 105.294H246.761L247.384 105.606V108.729L253.616 106.231L262.339 102.796H263.274L264.022 102.421Z" fill="#A5A5A5"/>
<path d="M179.776 8.8078L184.761 10.0568L194.42 13.4916L204.389 17.5509L215.294 22.2347L223.706 26.294L228.691 28.792L236.48 32.8513L241.776 35.9738L249.254 40.6576L252.992 43.1556L258.6 47.2149L263.897 50.962L268.259 54.3967L272.309 58.1438L277.917 63.7643L281.344 68.1359L284.148 72.5074L286.018 76.879L286.952 80.626V83.7485L286.018 87.4956L283.214 91.8671L280.721 94.3651L275.425 97.4876L267.013 101.235L264.832 101.859L263.897 102.171L261.716 101.235L250.5 96.5509L241.465 93.1161L229.003 88.7446L216.229 84.6853L198.781 80.0015L188.812 77.5035L176.038 74.6932L162.641 72.1952L147.997 69.6971L135.847 67.8236L122.45 66.2623L109.987 65.3256L104.068 65.0133V64.7011L107.495 64.3888L109.364 64.0766L112.168 63.7643L111.857 63.1398L112.791 62.5153L109.987 62.2031L109.676 60.6418H110.299L111.234 57.8315L112.168 57.5193V56.8948H113.103V56.2703L115.284 55.0212H115.907V54.3967L118.711 53.1477H119.334L119.646 52.211L122.45 50.962L124.319 49.7129L126.812 48.4639L128.369 47.2149L132.108 45.3414L133.666 43.7801L135.224 43.1556H136.47L136.781 42.5311L138.339 41.9066V41.2821L142.701 38.7841H143.324L143.947 37.5351L146.44 36.2861L149.555 33.788L151.425 32.8513H152.359V32.2268H153.294L153.606 31.29L155.786 30.041L156.41 29.1042L160.46 27.543L163.575 25.3572L167.314 22.8592H167.937L168.249 21.9224L171.676 20.6734L173.234 17.8631L174.48 16.6141H177.284L177.595 14.7406L180.399 13.8038L181.334 13.1793H185.696L185.384 12.2426L183.827 11.9303L180.711 10.6813L179.776 9.74456V8.8078Z" fill="#8E0DA2"/>
<path d="M90.0477 64.7011H104.068L118.711 65.6378L130.55 66.8869L142.078 68.4481L155.475 70.6339L171.053 73.4442L177.284 74.6932V75.3177H173.234L169.807 76.5667L164.822 77.5035L162.329 78.4402L160.148 78.7525L159.525 80.626L156.721 81.5627L156.098 82.1872H155.163L154.54 84.0608L153.606 84.9975L152.048 85.622L151.425 87.4955L151.736 88.4323L149.244 89.6813H145.505V91.2426L142.701 92.4916L142.078 94.3651L141.143 94.6774L140.52 95.3019L138.028 94.0529V93.4284L135.847 94.6774H132.108L131.173 95.6141L128.369 97.1754L127.746 97.7999H126.188H125.254L124.008 97.1754H121.515L119.334 97.7999L118.711 98.7367L116.219 99.0489V99.6734H115.284L114.661 101.235L111.857 102.171V102.484L109.987 102.796L108.741 102.484L103.445 103.42L101.887 104.982L100.641 105.606L98.4598 105.918L97.2136 104.669L94.4095 103.733H92.5402L92.8518 105.294L89.4246 104.669L86.9322 104.357H81.0126L76.3392 105.294L71.3543 107.792L68.2387 110.915L66.3693 114.662L65.4347 118.721L65.1231 123.717L62.0075 124.341L60.4497 125.278L59.2035 125.903L59.5151 127.152L57.6457 128.713L54.2186 129.025H44.2487L43.9372 106.543L43.6256 105.606H34.902L33.9673 105.918L33.6558 109.041V133.397L33.9673 136.519L34.5905 136.832L39.8869 137.456L40.8216 138.393V141.515L41.7563 144.013L43.6256 153.069L43.3141 154.005L41.1332 148.385L38.3291 140.266L38.0176 137.456H34.2789L33.3442 136.832L33.0327 135.895V106.231L34.2789 104.982L36.1482 104.669L36.4598 101.547L38.9523 94.3651L41.1332 89.6813L43.6256 84.9975L46.4296 81.5627L47.0528 80.626H47.6759L47.9874 79.6892H48.6106L48.9221 78.7525L52.3492 75.9422L55.1533 74.0687L59.5151 71.5706L65.7462 69.0726L73.2236 66.8869L79.4548 65.6378L84.1281 65.0133L90.0477 64.7011Z" fill="#918E8E"/>
<path d="M128.058 2.875H147.997L156.41 3.81176L160.771 4.43626L161.394 5.06077L160.148 5.68528L158.59 5.99753H157.344L157.033 6.62204L154.852 6.93429L153.606 7.24654V6.62204L152.671 7.24654H150.49L148.621 7.87105L146.128 8.49555L143.947 8.80781L143.324 10.0568L142.078 10.6813L140.52 12.2426L138.339 13.4916L138.028 14.4284L135.847 15.6774L135.224 16.6141L131.173 17.5509L129.616 18.7999L128.058 19.4244L127.746 20.0489L125.254 21.2979H124.631L124.319 22.5469L118.088 25.6695L117.153 25.9817L116.53 27.8552L114.972 28.792H114.038L113.415 29.4165L111.857 29.7288L111.545 30.6655L110.922 30.3533L110.611 31.29L108.43 32.539L105.937 33.4758L104.068 34.4125H103.133L102.822 35.3493H101.887L100.329 36.5983L99.0829 37.5351H97.8367V38.1596L96.902 38.7841H95.9673L95.6558 39.7209H95.0327L94.7211 40.3454L94.098 40.0331V40.6576L92.2286 40.9699L91.9171 41.5944L90.9824 41.9066L90.6709 42.8434L90.0477 42.5311V43.4679L87.5553 43.7801V44.4046H86.9322V45.3414L85.3744 45.6537V46.2782H84.7513L84.4397 46.9027L81.6357 47.5272L81.0126 49.4007L80.0779 50.0252V50.6497L79.1432 50.962L77.5854 51.8987L76.6508 52.8355L75.093 53.7722H74.4698V54.3967L68.5503 57.207L66.6809 57.8315V58.456L62.9422 60.3295L61.3844 61.2663L57.6457 63.1398H56.3995V64.0766L54.8417 65.3256L53.907 65.9501H53.2839L52.0377 66.5746L49.2337 66.2624L47.9874 66.8869L47.3643 68.1359H45.495V67.1991L45.1834 68.4481H45.8065V69.0726H44.2487V70.0094L42.691 70.9461L37.0829 72.8197L35.5251 73.7564H34.5905V74.3809L32.4095 75.6299L31.1633 77.1912L28.0477 79.377L26.49 80.3137H25.8668V80.9382H25.2437L24.6206 82.1873L21.8166 84.9975L20.2588 85.9343L18.701 86.2465L17.7663 86.5588L17.4548 88.4323L15.2739 88.7446L14.6508 89.9936L12.7814 91.5548H12.1583V90.9303L9.04271 92.4916L6.86181 92.1794L6.23869 93.7406L4.05779 93.4284L3.74623 96.5509L3.43467 98.1122V111.227L3.74623 118.409H3.43467L2.5 110.602V98.7367L4.05779 89.6813L6.23869 81.875L8.73116 75.6299L11.2236 70.6339L15.2739 63.7643L18.701 59.0805L21.505 55.3335L25.2437 51.2742L30.8518 45.6537L33.3442 43.4679L36.1482 40.9699L39.5754 38.1596L44.8719 34.1003L50.7915 30.041L56.7111 26.294L63.5653 22.5469L68.8618 20.0489L73.5352 17.5509L85.6859 12.5548L95.3442 9.12006L104.379 6.62204L114.661 4.43626L124.008 3.18725L128.058 2.875Z" fill="#820295"/>
<path d="M239.907 35.3493L241.153 35.6616L248.319 40.0331L252.992 43.1556L258.6 47.2149L263.897 50.962L268.259 54.3967L272.309 58.1438L277.917 63.7643L281.344 68.1359L284.148 72.5074L286.018 76.8789L286.952 80.626V83.7485L286.018 87.4956L283.214 91.8671L280.721 94.3651L275.425 97.4876L267.013 101.235L264.832 101.859L263.897 102.171L261.716 101.235L250.5 96.5509L241.465 93.1161L229.003 88.7446L216.229 84.6853L198.781 80.0015L199.405 78.128L201.897 77.1912V76.5667L203.455 75.3177L204.389 74.3809H205.013L205.324 73.1319L207.817 71.5706L213.425 69.0726L216.54 66.8869L219.344 65.9501L220.59 65.3256L221.214 64.3888L223.394 64.0766L223.083 63.1398L224.641 62.2031L225.887 62.5153L226.51 60.954H228.068L232.118 57.8315L235.545 56.5825L237.103 55.0212L238.661 54.0845L239.595 52.5232L240.842 51.2742L241.776 49.7129H243.334V49.0884L244.892 47.8394H245.827L246.45 46.5904L248.631 45.6537V45.0291L246.45 42.2189L245.515 41.5944V40.9699L244.269 40.3454L242.088 38.7841L240.219 36.5983L239.907 35.3493Z" fill="#A029B2"/>
<path d="M213.736 21.9224L215.294 22.2347L223.706 26.294L228.691 28.792L236.48 32.8513L240.219 35.037L240.842 36.9106L242.088 38.1596V38.7841L243.334 39.4086L245.515 40.9699L247.696 43.4679L249.254 45.3414L248.319 46.2782L246.138 47.2149L245.827 47.8394L244.269 48.1517L243.957 49.0884H243.334V49.7129L241.465 50.3374L240.219 52.5232H239.595L238.972 54.0845L238.038 55.0212L236.48 55.958L234.922 57.207L231.807 58.456L228.068 61.2663H226.51L225.887 62.5153L223.706 62.8276L223.394 64.0766L221.214 64.7011L220.59 65.6378L218.098 66.8869L215.917 67.5114L212.801 69.6971L205.947 72.8197L205.013 74.3809L203.766 74.6932L203.455 75.6299H202.832L202.209 77.1912L201.585 77.8157L199.405 78.128L199.093 79.6892L195.977 79.377L190.058 77.8157L176.038 74.6932L162.641 72.1952L152.048 70.3216L151.736 69.3849H155.163L154.229 68.4481L154.852 67.5114V66.5746H156.41L157.967 64.7011H158.59V63.4521L160.148 62.5153L160.771 61.2663L162.952 59.3928L164.822 57.8315L166.691 56.8948L168.56 56.2703V55.6457L171.364 54.3967L173.545 53.46L174.48 53.1477L175.726 51.8987L178.842 50.3374L180.399 49.4007L181.957 49.0884L182.269 48.1517L183.515 47.2149H184.45V46.2782L185.384 45.6537H186.631V45.0291H187.877L188.188 44.4046L190.369 43.4679L191.616 42.8434V42.2189L194.42 41.2821H195.354V40.6576L198.158 39.4086L200.651 38.4718L201.585 38.1596V37.5351H202.209V36.9106L203.766 35.3493V34.7248L207.193 33.1635H208.128L208.751 30.3533L209.374 29.4165L212.178 28.792H213.736L213.425 26.9185L215.606 26.294L216.852 25.6695L214.671 24.1082V23.1714L213.736 22.8592V21.9224Z" fill="#961BA9"/>
<path d="M214.671 134.958L215.294 135.895L215.606 136.832L219.967 137.456V137.768L217.475 138.081L214.671 138.393L214.048 140.266L212.49 144.326L212.178 146.199H211.244L210.621 149.634L209.997 151.195L209.374 154.005L207.193 160.563L204.701 165.871H204.078L203.766 167.432H203.143L202.832 169.306H202.209L201.585 170.867L200.339 172.428L198.781 175.551H198.158L197.847 176.488H197.224L196.601 178.049L194.731 180.547H194.108L193.796 183.357L192.239 184.918V185.543H192.862L193.173 184.918H193.796L194.42 183.669L195.977 183.045L196.601 181.484L197.535 180.859H198.47L198.781 178.986L200.028 178.673V181.171L199.093 182.42L198.47 184.294H197.847V187.729L197.535 188.978L197.847 189.915L199.716 189.602V192.1L198.781 192.413L198.47 195.535L197.224 197.409L195.977 199.594L194.42 199.907V201.156H195.354L195.666 200.531L195.977 201.78L195.354 203.654L194.42 205.527L193.796 207.401H193.173L192.55 209.274L191.616 210.523L189.746 214.583H189.123L188.5 216.144L187.877 216.768L186.942 220.203V223.638L188.188 224.887L187.877 228.009L186.942 229.883H190.369L192.55 229.258L193.485 228.946H196.912L203.143 228.634V229.258L201.897 229.571L201.585 231.132L201.274 231.756L202.209 231.132L205.324 231.444L208.128 230.82L213.113 229.571L217.475 228.009L220.59 227.073L220.279 228.009L219.033 228.634L218.721 229.258H217.786V229.883H216.852L216.229 230.195L215.606 232.069L206.882 234.879L194.42 237.689L186.631 238.938L176.349 239.875H164.822L156.098 239.25L144.882 237.689L137.093 236.128L129.304 233.942V233.318L131.796 233.63L134.601 234.254L137.093 234.567L139.274 235.503H141.455L141.766 235.816L147.374 236.44V237.065L148.932 236.44L148.309 235.816L141.143 234.567L140.209 233.942L136.47 233.005L134.289 232.069L133.043 231.132H133.977L134.601 229.571L134.912 229.258H137.093L137.405 227.073L136.781 225.824L137.093 224.575L136.781 223.95H135.535V222.701L136.781 222.389L136.158 220.828L135.847 220.515V218.33L133.043 216.768L132.731 216.144L133.977 214.895L136.781 213.958L140.832 212.709L142.078 212.397V211.772L149.244 209.899L156.721 207.088L165.445 203.029L168.56 201.156L171.987 198.97L175.726 196.472L179.776 193.349L181.023 192.413H181.646V191.788L184.138 189.915L188.188 186.167L191.927 182.108L195.354 177.737L196.601 175.863H197.224L197.847 174.302L200.028 171.179L203.143 166.183L204.389 163.685L207.193 154.942L209.686 145.575L211.867 139.642L213.736 136.207L214.671 134.958Z" fill="#949494"/>
<path d="M90.0477 64.7011H104.068L114.661 65.3256V65.9501H108.118L111.234 66.2623L109.987 66.8869H107.807L106.249 68.1359L104.691 68.4481L105.626 69.6971H105.003L105.314 72.1952L104.379 73.1319H101.575L100.641 73.4442L99.706 72.8197L99.0829 74.0687L98.4598 74.6932L97.2136 75.0054L97.8367 75.3177L97.5251 76.2544H96.5905L96.902 77.5035L95.6558 78.7525H95.0327L94.098 80.3137H93.4749V81.2505H92.8518L92.5402 82.4995L90.0477 83.4363L88.4899 83.124H85.6859L84.7513 83.7485H84.1281L83.1935 85.622L80.0779 86.871L74.1583 88.1201L71.9774 88.4323L71.6658 88.7446L69.4849 89.0568L67.9271 89.6813V91.2426L66.3693 91.5548L66.0578 91.2426V89.3691L63.8769 90.6181L62.0075 92.8038H61.3844V93.4284H60.7613V94.0529L59.2035 94.9896L58.5804 96.2386L57.3342 96.8631H56.3995L55.7764 99.3612L52.6608 100.298H52.0377L51.7261 101.547L50.1683 101.859L49.5452 103.108H47.0528L46.7412 103.733H46.1181V104.982L44.8719 105.606H34.902L33.9673 105.918L33.6558 109.041V133.397L33.9673 136.519L34.5905 136.832L39.8869 137.456L40.8216 138.393V141.515L41.7563 144.013L43.6256 153.069L43.3141 154.005L41.1332 148.385L38.3291 140.266L38.0176 137.456H34.2789L33.3442 136.832L33.0327 135.895V106.231L34.2789 104.982L36.1482 104.669L36.4598 101.547L38.9523 94.3651L41.1332 89.6813L43.6256 84.9975L46.4296 81.5627L47.0528 80.626H47.6759L47.9874 79.6892H48.6106L48.9221 78.7525L52.3492 75.9422L55.1533 74.0687L59.5151 71.5706L65.7462 69.0726L73.2236 66.8869L79.4548 65.6378L84.1281 65.0133L90.0477 64.7011Z" fill="#A8A7A7"/>
<path d="M81.0126 104.045H86.9322L91.9171 104.982L95.0327 106.231L98.1482 108.416L100.329 110.602L102.198 114.349L103.133 117.784V124.654L101.887 128.713L100.018 131.835L98.1482 134.021L94.7211 136.207L90.3593 137.768L88.49 138.081H79.4548L75.093 136.832L71.0427 134.646L68.2387 131.835L66.0578 127.464L65.1231 123.717V118.721L66.3693 113.725L68.2387 110.602L71.3543 107.48L76.3392 104.982L81.0126 104.045Z" fill="#FEFFFF"/>
<path d="M197.847 19.1122L203.455 19.4244L205.324 20.0489L208.128 19.7367L210.932 20.3612L214.048 21.6102L213.736 22.8592L214.982 23.1714V23.7959L217.163 25.6695L216.54 26.294L213.736 26.9185V28.792L209.374 29.4165L208.751 32.2268L208.128 33.1635L205.013 34.4125L204.078 35.3493L202.832 36.9106H202.209V37.5351H201.585V38.1596L200.339 39.0963L198.158 39.7208L195.354 40.6576V41.2821L191.616 42.2189V42.8434L190.058 44.0924L188.188 44.7169L186.631 45.0291V45.6537L184.45 46.2782V47.2149L182.269 48.4639L181.957 49.0884L179.153 50.3374L177.284 51.5865L175.726 52.211L174.791 52.5232L174.48 53.46L171.676 54.3967L169.495 55.6457H168.56V56.2703L164.822 58.1438H164.198L163.575 59.3928L162.018 60.3295L161.394 61.2663H160.771L160.46 62.5153L159.525 63.4521H158.59V64.7011L157.344 65.9501H156.721L156.41 66.8869L154.852 66.5746L155.163 67.8236H154.54V68.4481L155.786 69.3849L153.606 69.6971L151.736 69.3849V70.0094L147.997 69.6971L135.847 67.8236L132.731 67.5114L131.485 66.8869V66.2624L132.42 65.9501H137.716L138.962 65.6378V65.0133L137.093 64.0766L136.781 62.8276L137.716 62.5153L138.962 60.954L139.897 60.6418L138.651 60.0173L138.339 58.7683L139.585 58.1438L140.832 57.8315L142.078 56.5825L143.947 55.958V56.8948H144.57V56.2703L147.374 55.3335L148.932 54.0845L151.425 52.8355L152.359 51.8987L154.852 50.962L157.033 49.7129L158.279 49.4007L158.902 48.1517L161.083 47.5272V46.5904H161.706L162.329 47.8394H162.952V47.2149L165.445 45.9659L167.937 44.4046H168.56V43.7801L170.118 43.4679L170.43 42.8434L171.676 42.2189L173.857 41.2821L174.48 40.3454L176.661 39.7208L176.349 38.1596L177.284 37.2228L179.465 36.9106H180.088L180.711 35.9738L183.827 34.4125L185.073 34.1003V33.4758L187.254 32.539H188.812V31.9145L190.058 30.9778L191.304 30.6655L190.369 29.7288L190.992 29.4165V28.792L193.796 27.8552L195.043 25.6695L195.977 25.3572L196.289 22.8592H196.912L195.977 20.0489L197.847 19.1122Z" fill="#9216A5"/>
<path d="M228.068 28.792L229.937 29.4165L239.284 34.4125L240.219 35.3493L240.842 36.9106L242.088 38.1596V38.7841L243.334 39.4086L245.515 40.9699L247.696 43.4679L249.254 45.3414L248.319 46.2782L246.138 47.2149L245.827 47.8394L244.269 48.1517L243.957 49.0884H243.334V49.7129L241.465 50.3374L240.219 52.5232H239.595L238.972 54.0845L238.038 55.0212L236.48 55.958L234.922 57.207L231.807 58.456L228.068 61.2663H226.51L225.887 62.5153L223.706 62.8276L223.394 64.0766L221.214 64.7011L220.59 65.6378L218.098 66.8869L215.917 67.5114L212.802 69.6971L205.947 72.8197L205.013 74.3809L203.766 74.6932L203.455 75.6299H202.832L202.209 77.1912L201.585 77.8157L199.405 78.128L199.093 79.6892L195.977 79.377L190.058 77.8157L176.038 74.6932L173.857 74.3809V73.4442L174.48 73.1319L175.726 73.4442L180.088 73.7564L182.58 74.3809L183.204 70.9461L185.073 69.6971L185.384 69.0726H186.008L186.319 68.4481L187.877 67.8236V66.2623L189.123 65.6378L189.435 64.7011L191.304 64.0766L195.043 62.2031L196.601 61.5786L201.585 59.0805L204.078 58.1438L204.389 57.5193L207.505 55.958H208.128V55.3335L212.49 52.5232L214.671 51.5865L214.982 50.962L220.59 48.1517L222.148 46.5904L224.952 45.6537L225.575 45.0291L225.264 44.4046L225.575 43.4679L227.445 42.5311H229.937V41.2821L229.003 40.9699L229.314 40.3454H231.807L232.118 38.7841L231.807 37.8473L233.987 37.5351L234.299 35.6616V35.3493L233.676 33.788L232.741 33.4758L232.43 32.2268H231.495L229.626 30.041L228.379 29.7288L228.068 28.792Z" fill="#9B23AE"/>
<path d="M38.3292 95.3019L38.6407 96.2386L36.4598 102.796L36.1482 104.669L33.6558 105.606L33.3442 106.231V136.519H31.7864L31.1633 137.768L28.9824 139.954H28.3593V141.515L26.8015 141.828L23.0628 142.452L20.5704 143.077H19.3241L16.2085 142.14V142.764L14.6508 142.452L13.7161 141.515H13.093L12.4699 140.891V141.828L13.093 142.14L14.3392 145.262L17.1432 150.258L19.0126 153.381L18.701 154.005L15.2739 148.697L11.5352 141.515L8.10804 134.333L5.61558 127.464L3.74623 120.282L3.43468 112.788L4.05779 113.725L4.36935 115.598V118.721L6.86181 119.345H7.48493L8.10804 117.472L9.04272 116.535L9.97739 114.974L12.4699 114.037L14.0276 112.476L18.3895 113.1L18.701 111.851L19.0126 110.915L20.8819 110.602L21.1935 109.353L23.6859 108.104L25.2437 107.48L25.8668 104.982L27.4246 105.294L28.3593 105.918L28.9824 105.294L29.294 104.045L32.098 104.669L34.2789 104.045L34.902 102.796H35.5251L35.8367 101.235L36.7714 98.4244L38.3292 95.3019Z" fill="#8E0DA1"/>
<path d="M71.3543 199.594H72.9121L76.9623 201.468L79.7663 202.405L85.9975 205.215L91.9171 207.401L100.329 209.899L110.922 212.084L119.023 213.021L122.761 213.333H131.485L138.651 212.397L142.078 212.084L140.832 213.021L136.781 214.27L133.977 215.207L133.043 216.144L133.977 217.081L136.158 218.33V220.515L137.093 221.764L136.781 222.701H135.535L135.847 223.638L137.093 223.95L137.405 224.887L137.093 226.136L137.716 227.073L137.405 228.634L137.093 229.258L134.912 229.571L133.977 231.444L135.535 232.381L140.832 233.942L142.389 234.567L148.621 235.503L149.244 236.44L148.621 237.065H147.374V236.44L146.44 236.752L141.766 236.128L141.455 235.816H138.962L135.847 234.567L133.043 234.254L130.55 233.63H128.058L119.957 230.82L111.857 227.697L105.626 224.887L98.4598 221.14L91.9171 217.081L86.309 213.021L81.3241 208.962L78.5201 206.776L74.7814 203.341L71.3543 199.907V199.594Z" fill="#8E8E8E"/>
<path d="M145.817 105.294H176.661L176.972 105.606L177.284 110.602L176.972 113.1L174.48 113.413H156.41V116.847H161.706L171.987 117.16L172.299 117.784V124.966L171.987 125.278L156.721 125.59L156.41 129.025H169.495L176.661 129.337L177.284 130.899V136.832L176.972 137.144L173.857 137.456H161.083L145.817 137.144L145.505 136.519V107.48L145.817 105.294Z" fill="#FEFFFF"/>
<path d="M215.606 105.294H246.45L247.073 105.606V110.602L246.45 112.788L246.138 113.1L241.153 113.413H226.51V116.535L241.153 117.16L241.776 117.472L242.088 118.409V122.78L241.776 124.966L239.595 125.278H226.198V129.025H238.972L246.138 129.337L246.761 129.962L247.073 135.895L246.45 137.144H215.606L215.294 136.832V105.606L215.606 105.294Z" fill="#FEFFFF"/>
<path d="M266.389 103.733L273.555 104.045L278.229 105.294L281.656 107.167L283.525 108.729L285.394 111.539L286.018 112.788L286.329 115.598L284.771 117.16H277.294L273.244 113.1L271.063 112.164H267.636L265.143 113.1L263.585 114.662L262.028 117.784L261.716 119.345V123.092L262.651 126.215L264.52 128.713L266.701 129.962L267.947 130.274H270.44L272.932 129.337L275.425 127.152L277.606 124.966L278.229 124.654H284.771L286.641 125.903V128.401L284.771 132.148L281.967 134.958L277.606 137.144L273.867 138.081H264.52L258.912 136.207L255.485 134.021L253.304 131.523L251.435 127.776L250.5 124.341V117.784L251.435 114.349L253.304 110.602L256.731 107.167L261.405 104.982L266.389 103.733Z" fill="#FDFEFE"/>
<path d="M103.756 105.294H113.726L114.972 106.543L118.088 114.037L122.138 124.341L123.073 126.839L124.631 123.092L128.992 111.539L131.485 105.918L132.108 105.294H142.701L142.389 107.792L139.897 114.037L135.847 123.092L131.796 132.46L129.927 136.207L128.992 137.144H117.776L116.219 135.583L114.038 131.211L110.922 123.717L106.872 114.349L104.068 107.792L103.756 105.294Z" fill="#FEFFFF"/>
<path d="M179.153 105.294H211.867L212.178 105.606V110.602L211.867 113.1L209.374 113.413H201.274V126.527L200.962 136.832L200.651 137.144H190.681L190.369 136.832L190.058 127.464V113.413H179.776L179.153 113.1V105.294Z" fill="#FEFFFF"/>
<path d="M34.902 105.294H43.6256L44.2487 106.543V129.025L62.0075 129.337L62.6307 129.962L62.9422 131.211V136.207L62.3191 137.144H34.5905L33.6558 136.519L33.3442 133.397V109.041L33.6558 105.918L34.902 105.294Z" fill="#FEFFFF"/>
<path d="M45.495 159.626L46.4296 160.875L49.8568 168.057L51.7261 171.179L53.2839 173.99L56.0879 178.673L59.5151 183.982L63.2538 188.978L66.0578 192.1L69.4849 195.847L71.292 199.844L61.3844 193.349L50.1683 185.855L45.1834 181.796L41.1332 178.673L35.5251 173.053L33.0327 170.867L28.9824 166.808L26.8015 164.31L25.8668 162.749H26.8015L29.6055 165.559L31.1633 166.496L33.9673 168.369L38.3291 170.555H39.5754L39.8869 169.93L40.8216 170.243V169.618H42.3794L42.691 167.745L43.0025 167.12H43.6256V166.496L44.2487 166.183H46.1181L45.495 163.998L45.8065 161.5L45.495 159.626Z" fill="#A029B2"/>
<path d="M71.3543 199.594H72.9121L76.9623 201.468L79.7663 202.405L85.9975 205.215L91.9171 207.401L100.329 209.899L110.922 212.084L115.595 213.021V213.646L113.726 213.958H111.545L109.676 213.646L108.118 214.27L107.807 218.33L108.118 219.891L108.43 222.701H109.364L109.676 223.326L114.349 225.511L115.907 226.448L117.776 227.073L119.334 228.009L120.58 228.322L120.892 229.258H119.957L118.711 228.946L117.465 229.571L115.907 229.258L109.676 226.76L101.887 223.013L95.3442 219.266L89.7362 215.519L85.9975 212.709L81.6357 209.274L78.5201 206.776L74.7814 203.341L71.3543 199.907V199.594Z" fill="#828282"/>
<path d="M31.7864 121.531L32.4095 122.156L32.7211 124.341L33.0327 135.583V136.519H31.7864L31.1633 137.768L28.9824 139.954H28.3593V141.515L26.8015 141.828L23.0628 142.452L20.5704 143.077H19.3241L16.2085 142.14V142.764L14.6508 142.452L13.7161 141.515H13.093L12.4698 138.393L11.2236 136.207L10.9121 129.65L10.6005 129.025V126.527L11.8467 127.152L13.4045 125.903L15.5854 125.278V126.215L15.2739 127.464L14.0276 128.401H12.7814L13.4045 129.025H16.2085L16.5201 128.088L18.0779 127.152L18.3894 124.966L19.6357 125.278L21.1935 125.903V126.839L19.9472 127.152L19.3241 126.839L20.5704 128.713L22.4397 129.025L23.6859 127.776H24.309V126.215L25.8668 125.903L26.49 127.152L25.2437 128.401L27.1131 129.337L28.0477 129.962H29.9171L31.1633 124.029V122.156L31.7864 121.531Z" fill="#9216A5"/>
<path d="M41.1332 148.385L41.7563 149.009L43.9372 154.942L45.495 159.001L46.1181 162.436L45.8065 164.31L46.1181 166.183L43.6256 166.496V167.12H43.0025V168.681H42.3794L42.691 169.618L41.7563 169.93L40.8216 169.618V170.243L39.5754 170.555L40.1985 170.867H38.3291L33.3442 168.369L30.5402 166.183L28.9824 165.247L26.49 162.749L25.2437 162.436L21.505 158.065L19.0126 154.63L18.3895 152.132H19.0126L20.5704 153.693L22.4397 154.942L23.6859 155.879L26.1784 156.191V155.254L27.4246 155.567L28.9824 155.879L29.9171 154.942L31.4749 155.254V156.191H34.2789L36.4598 155.254L38.0176 154.005L39.2638 151.507H40.1985L40.8216 149.322L41.1332 148.385Z" fill="#9B23AD"/>
<path d="M82.8819 111.851L86.6206 112.164L89.1131 113.413L90.9824 115.598L91.9171 117.784L92.2286 119.658V122.78L91.294 125.903L90.0477 127.776L87.8668 129.65L86.6206 130.274H81.6357L79.4548 129.025L77.2739 126.527L76.3392 123.717V118.409L77.2739 115.598L79.4548 113.1L81.3241 112.164L82.8819 111.851Z" fill="#848383"/>
<path d="M71.3543 199.594H72.9121L76.9623 201.468L79.7663 202.405L85.9975 205.215L91.9171 207.401L92.2286 208.962H91.6055V209.586H90.9824L92.2286 212.084V213.333H91.6055L92.2286 215.519L93.7864 215.832L94.098 216.768H95.0327V217.705L95.9673 218.017V218.642L94.098 218.017L93.1633 217.081L92.5402 216.768V216.144L90.9824 215.519L82.2588 208.962L80.701 208.65L76.0276 204.59L71.3543 199.907V199.594Z" fill="#7D7D7D"/>
<path d="M71.3543 199.594H72.9121L76.9623 201.468L79.7663 202.405L85.9975 205.215L86.9322 205.839L84.7513 205.527H83.8166L84.1281 207.088L85.9975 210.211V211.46L84.7513 210.835L82.2588 208.962L80.701 208.65L76.0276 204.59L71.3543 199.907V199.594Z" fill="#767676"/>
<path d="M138.339 236.128L141.766 236.44L149.867 237.689H151.425L151.113 236.44H152.671L153.917 237.065V237.689L157.656 238.626H161.394L164.51 238.938H175.726V238.626L178.842 238.314L180.088 238.626H182.892L188.812 238.001H190.992V238.314L180.711 239.563L176.349 239.875H164.822L156.098 239.25L144.882 237.689L138.339 236.44V236.128Z" fill="#B7B7B7"/>
<path d="M226.51 113.413H237.726L236.168 114.662L232.118 116.847H226.51L226.198 116.535V114.037L226.51 113.413Z" fill="#B4B4B4"/>
<path d="M33.3442 133.397H33.6558L33.9673 136.519L34.5905 136.832L39.8869 137.456L40.8216 138.393V141.515L41.7563 144.013L43.6256 153.069L43.3141 154.005L41.1332 148.385L38.3291 140.266L38.0176 137.456H34.2789L33.3442 136.832V133.397Z" fill="#C6C6C6"/>
<path d="M110.611 226.448L112.168 226.76L114.038 227.073L114.972 226.76H117.465L118.711 227.697L120.58 228.322L120.892 229.258H119.957L118.711 228.946L117.465 229.571L115.907 229.258L111.234 227.385V226.76L110.611 226.448Z" fill="#B0B0B0"/>
<path d="M136.158 234.254H138.028L138.339 234.567H139.897L141.143 234.254L148.621 235.503L149.244 236.44L148.621 237.065H147.374V236.44L146.44 236.752L141.766 236.128L141.455 235.816H138.962L136.158 234.567V234.254Z" fill="#B7B7B7"/>
<path d="M212.802 231.132H214.671V232.381L207.817 234.567H206.882L207.193 233.318L209.063 232.381H211.244L212.802 231.756V231.132Z" fill="#D7D7D7"/>
<path d="M129.304 233.318L131.796 233.63L134.601 234.254L137.093 234.567L138.962 235.503L139.274 236.128H137.093L129.304 233.942V233.318Z" fill="#CBCBCB"/>
<path d="M199.716 172.428L200.028 173.053L198.781 175.551H198.158L197.847 176.488L196.289 177.112L196.6 175.863H197.224L197.847 174.302L199.405 172.741L199.716 172.428Z" fill="#D5D5D5"/>
<path d="M71.3543 199.594H72.9121L74.7814 200.531L74.4698 201.156H73.8467L73.5352 202.092L71.3543 199.907V199.594Z" fill="#A3A3A3"/>
<path d="M212.802 231.132H214.671V232.381L212.802 233.005H211.244L212.178 232.069L212.802 231.756V231.132Z" fill="#E1E1E1"/>
<path d="M49.8568 78.128V79.0647L46.4296 82.4995V81.5627L47.0528 80.626H47.6759L47.9874 79.6892H48.6106L48.9221 78.7525L49.8568 78.128Z" fill="#C2C2C2"/>
</g>
<defs>
<filter id="filter0_d_3_2" x="1.5" y="2.875" width="312" height="240" filterUnits="userSpaceOnUse" color-interpolation-filters="sRGB">
<feFlood flood-opacity="0" result="BackgroundImageFix"/>
<feColorMatrix in="SourceAlpha" type="matrix" values="0 0 0 0 0 0 0 0 0 0 0 0 0 0 0 0 0 0 127 0" result="hardAlpha"/>
<feOffset dy="2"/>
<feGaussianBlur stdDeviation="0.5"/>
<feComposite in2="hardAlpha" operator="out"/>
<feColorMatrix type="matrix" values="0 0 0 0 0 0 0 0 0 0 0 0 0 0 0 0 0 0 0.25 0"/>
<feBlend mode="normal" in2="BackgroundImageFix" result="effect1_dropShadow_3_2"/>
<feBlend mode="normal" in="SourceGraphic" in2="effect1_dropShadow_3_2" result="shape"/>
</filter>
<filter id="filter1_d_3_2" x="0.5" y="0.875" width="313.688" height="241" filterUnits="userSpaceOnUse" color-interpolation-filters="sRGB">
<feFlood flood-opacity="0" result="BackgroundImageFix"/>
<feColorMatrix in="SourceAlpha" type="matrix" values="0 0 0 0 0 0 0 0 0 0 0 0 0 0 0 0 0 0 127 0" result="hardAlpha"/>
<feOffset/>
<feGaussianBlur stdDeviation="1"/>
<feComposite in2="hardAlpha" operator="out"/>
<feColorMatrix type="matrix" values="0 0 0 0 0.227734 0 0 0 0 0.227734 0 0 0 0 0.227734 0 0 0 0.38 0"/>
<feBlend mode="normal" in2="BackgroundImageFix" result="effect1_dropShadow_3_2"/>
<feBlend mode="normal" in="SourceGraphic" in2="effect1_dropShadow_3_2" result="shape"/>
</filter>
</defs>
</svg>
